<svg xmlns="http://www.w3.org/2000/svg" xmlns:xlink="http://www.w3.org/1999/xlink" viewBox="0 0 500 500"><image width="418" height="393" xlink:href="D13E872D.png" transform="translate(21 110)" overflow="visible" opacity=".3"/><path d="M359.25 140H91.43c-21.11 0-38.38 17.51-38.38 38.63v196.4c0 21.11 17.26 37.97 38.38 37.97h170.88l69.74 48.95V413h27.2c21.11 0 38.8-16.86 38.8-37.97v-196.4c0-21.12-17.68-38.63-38.8-38.63z" fill="#6ab4ce"/><path fill="#eda8b0" d="M132.33 254.43h186.03v120.09H132.33z"/><image width="259" height="274" xlink:href="D13E872F.png" transform="translate(102 143)" overflow="visible" opacity=".3"/><path fill="#c8db16" d="M132.33 254h186.03v121H132.33zM233.92 178.24s-11.78-12.5-24.44.09L132.35 254h186.03l-84.46-75.76z"/><path d="M232.9 187.22s-10.38-11.05-21.52.04l-67.94 66.8 163.83.03-74.37-66.87z" opacity=".7" fill="#a8ad3b"/><image width="227" height="203" xlink:href="D13E872A.png" transform="translate(112 168)" overflow="visible" opacity=".3"/><path fill="#fff" d="M145.74 200.26h153.38v130.47H145.74z"/><path opacity=".6" fill="#dedede" d="M158.16 221.4h128.53v5.66H158.16zM158.16 238.58h128.53v5.66H158.16zM158.16 255.76h128.53v5.66H158.16zM158.16 272.93h128.53v5.66H158.16zM158.16 290.11h128.53v5.66H158.16z"/><path d="M234.5 288.91s-4.31 1.66-5.43 2.92c-2.52 2.85-6.64 15.21-6.64 15.21l8.59 8.15 87.34 59.34.02-120.09-83.88 34.47z" fill="#c6cc46"/><path d="M220.85 307.99c0 .02.01.02 0 0z" fill="#c8db16"/><path d="M214.05 292.89c-1.13-1.25-5.47-2.84-5.47-2.84l-76.23-35.62-.02 120.09 80.03-58.26 8.5-8.27c-.16-.4-4.52-12.57-6.81-15.1z" fill="#c6cc46"/><path d="M256.64 300.03c-2.39-4.24-6.62-4.22-6.62-4.22l-28.16-.15h-.23l-28.1.21s-3.91-.12-6.04 4.87l-55.16 73.77 90.11-.33 95.92.33-61.72-74.48z" fill="#c8db16"/><g><image width="249" height="249" xlink:href="D13E872B.png" transform="translate(234 6)" overflow="visible" opacity=".3"/><ellipse transform="rotate(-76.962 352.285 121.053)" cx="352.27" cy="121.05" rx="88.05" ry="88.05" fill="#c8db16"/><text transform="translate(282.134 142.236)" fill="#fff" stroke="#363f3f" stroke-width=".956" stroke-miterlimit="10" font-family="DIN-Black" font-size="68.819">New</text></g></svg>